<svg xmlns="http://www.w3.org/2000/svg" xmlns:xlink="http://www.w3.org/1999/xlink" width="37.072" height="23.917" viewBox="0 0 37.072 23.917"><defs><style>.a{fill:#fff;}.b{clip-path:url(#a);}.c{fill:#de2910;}.d{fill:#ffde00;}</style><clipPath id="a"><rect class="a" width="37.072" height="23.917" rx="5" transform="translate(0 0)"/></clipPath></defs><g class="b"><g transform="translate(0 0)"><rect class="c" width="60.971" height="41.156"/><path class="d" d="M3.013-3,6.639,8.158l-9.492-6.9H8.88l-9.492,6.9Z" transform="translate(7.267 7.112)"/><path class="d" d="M1.955,0,3.164,3.719,0,1.421H3.911L.747,3.719Z" transform="translate(19.566 1.455) rotate(23.036)"/><path class="d" d="M1.955,0,3.164,3.719,0,1.421H3.911L.747,3.719Z" transform="matrix(0.696, 0.718, -0.718, 0.696, 24.787, 5.389)"/><path class="d" d="M1.955,0,3.164,3.719,0,1.421H3.911L.747,3.719Z" transform="matrix(0.343, 0.939, -0.939, 0.343, 25.934, 11.851)"/><path class="d" d="M1.955,0,3.164,3.719,0,1.421H3.911L.747,3.719Z" transform="translate(19.457 15.891) rotate(20.66)"/></g></g></svg>
